<mxfile host="app.diagrams.net" agent="Mozilla/5.0 (Windows NT 10.0; Win64; x64) AppleWebKit/537.36 (KHTML, like Gecko) Chrome/139.0.0.0 Safari/537.36" version="28.1.0">
  <diagram name="Page-1" id="9f46799a-70d6-7492-0946-bef42562c5a5">
    <mxGraphModel dx="1097" dy="627" grid="1" gridSize="10" guides="1" tooltips="1" connect="1" arrows="1" fold="1" page="1" pageScale="1" pageWidth="1100" pageHeight="850" background="none" math="0" shadow="0">
      <root>
        <mxCell id="0" />
        <mxCell id="1" parent="0" />
        <mxCell id="tYtHjg2n9Ym6Ow5HlM6s-23" value="" style="line;html=1;strokeWidth=1;fillColor=none;align=left;verticalAlign=middle;spacingTop=-1;spacingLeft=3;spacingRight=3;rotatable=0;labelPosition=right;points=[];portConstraint=eastwest;" vertex="1" parent="1">
          <mxGeometry x="500" y="1376" width="210" height="8" as="geometry" />
        </mxCell>
        <mxCell id="tYtHjg2n9Ym6Ow5HlM6s-15" value="" style="line;html=1;strokeWidth=1;fillColor=none;align=left;verticalAlign=middle;spacingTop=-1;spacingLeft=3;spacingRight=3;rotatable=0;labelPosition=right;points=[];portConstraint=eastwest;" vertex="1" parent="1">
          <mxGeometry x="500" y="1476" width="160" height="8" as="geometry" />
        </mxCell>
        <mxCell id="tYtHjg2n9Ym6Ow5HlM6s-33" value="" style="group" vertex="1" connectable="0" parent="1">
          <mxGeometry x="50" y="1360" width="1030" height="270" as="geometry" />
        </mxCell>
        <mxCell id="tYtHjg2n9Ym6Ow5HlM6s-1" value="&lt;p style=&quot;margin:0px;margin-top:4px;margin-left:10px;text-align:left;&quot;&gt;&lt;b&gt;org.fabianandiel.validation&lt;/b&gt;&lt;/p&gt;" style="html=1;shape=mxgraph.sysml.package;html=1;overflow=fill;whiteSpace=wrap;labelX=168.8;" vertex="1" parent="tYtHjg2n9Ym6Ow5HlM6s-33">
          <mxGeometry width="360" height="270" as="geometry" />
        </mxCell>
        <mxCell id="tYtHjg2n9Ym6Ow5HlM6s-32" value="" style="group" vertex="1" connectable="0" parent="tYtHjg2n9Ym6Ow5HlM6s-33">
          <mxGeometry x="30" width="1000" height="265" as="geometry" />
        </mxCell>
        <mxCell id="tYtHjg2n9Ym6Ow5HlM6s-3" value="LoginRequest" style="swimlane;html=1;fontStyle=1;align=center;verticalAlign=top;childLayout=stackLayout;horizontal=1;startSize=26;horizontalStack=0;resizeParent=1;resizeLast=0;collapsible=1;marginBottom=0;swimlaneFillColor=#ffffff;rounded=0;shadow=0;comic=0;labelBackgroundColor=none;strokeWidth=1;fillColor=none;fontFamily=Verdana;fontSize=12" vertex="1" parent="tYtHjg2n9Ym6Ow5HlM6s-32">
          <mxGeometry y="170" width="160" height="70" as="geometry">
            <mxRectangle x="30" y="820" width="120" height="30" as="alternateBounds" />
          </mxGeometry>
        </mxCell>
        <mxCell id="tYtHjg2n9Ym6Ow5HlM6s-8" value="" style="line;html=1;strokeWidth=1;fillColor=none;align=left;verticalAlign=middle;spacingTop=-1;spacingLeft=3;spacingRight=3;rotatable=0;labelPosition=right;points=[];portConstraint=eastwest;" vertex="1" parent="tYtHjg2n9Ym6Ow5HlM6s-3">
          <mxGeometry y="26" width="160" height="8" as="geometry" />
        </mxCell>
        <mxCell id="tYtHjg2n9Ym6Ow5HlM6s-10" value="EmployeeFormValidationService&lt;div&gt;&lt;br&gt;&lt;/div&gt;" style="swimlane;html=1;fontStyle=1;align=center;verticalAlign=top;childLayout=stackLayout;horizontal=1;startSize=26;horizontalStack=0;resizeParent=1;resizeLast=0;collapsible=1;marginBottom=0;swimlaneFillColor=#ffffff;rounded=0;shadow=0;comic=0;labelBackgroundColor=none;strokeWidth=1;fillColor=none;fontFamily=Verdana;fontSize=12" vertex="1" parent="tYtHjg2n9Ym6Ow5HlM6s-32">
          <mxGeometry y="86" width="270" height="64" as="geometry">
            <mxRectangle x="30" y="820" width="120" height="30" as="alternateBounds" />
          </mxGeometry>
        </mxCell>
        <mxCell id="tYtHjg2n9Ym6Ow5HlM6s-11" value="" style="line;html=1;strokeWidth=1;fillColor=none;align=left;verticalAlign=middle;spacingTop=-1;spacingLeft=3;spacingRight=3;rotatable=0;labelPosition=right;points=[];portConstraint=eastwest;" vertex="1" parent="tYtHjg2n9Ym6Ow5HlM6s-10">
          <mxGeometry y="26" width="270" height="8" as="geometry" />
        </mxCell>
        <mxCell id="tYtHjg2n9Ym6Ow5HlM6s-31" value="" style="group" vertex="1" connectable="0" parent="tYtHjg2n9Ym6Ow5HlM6s-32">
          <mxGeometry x="271" width="729" height="265" as="geometry" />
        </mxCell>
        <mxCell id="tYtHjg2n9Ym6Ow5HlM6s-30" value="" style="group" vertex="1" connectable="0" parent="tYtHjg2n9Ym6Ow5HlM6s-31">
          <mxGeometry x="129" width="600" height="265" as="geometry" />
        </mxCell>
        <mxCell id="tYtHjg2n9Ym6Ow5HlM6s-13" value="&lt;p style=&quot;margin:0px;margin-top:4px;margin-left:10px;text-align:left;&quot;&gt;&lt;b&gt;org.fabianandiel.gui&lt;/b&gt;&lt;/p&gt;" style="html=1;shape=mxgraph.sysml.package;html=1;overflow=fill;whiteSpace=wrap;labelX=188.8;container=0;" vertex="1" parent="tYtHjg2n9Ym6Ow5HlM6s-30">
          <mxGeometry width="600" height="265" as="geometry" />
        </mxCell>
        <mxCell id="tYtHjg2n9Ym6Ow5HlM6s-14" value="Login Controller" style="swimlane;html=1;fontStyle=1;align=center;verticalAlign=top;childLayout=stackLayout;horizontal=1;startSize=26;horizontalStack=0;resizeParent=1;resizeLast=0;collapsible=1;marginBottom=0;swimlaneFillColor=#ffffff;rounded=0;shadow=0;comic=0;labelBackgroundColor=none;strokeWidth=1;fillColor=none;fontFamily=Verdana;fontSize=12;container=0;" vertex="1" parent="tYtHjg2n9Ym6Ow5HlM6s-30">
          <mxGeometry x="30" y="175" width="160" height="70" as="geometry">
            <mxRectangle x="30" y="820" width="120" height="30" as="alternateBounds" />
          </mxGeometry>
        </mxCell>
        <mxCell id="tYtHjg2n9Ym6Ow5HlM6s-22" value="&lt;div&gt;EmployeeFormController&lt;/div&gt;" style="swimlane;html=1;fontStyle=1;align=center;verticalAlign=top;childLayout=stackLayout;horizontal=1;startSize=26;horizontalStack=0;resizeParent=1;resizeLast=0;collapsible=1;marginBottom=0;swimlaneFillColor=#ffffff;rounded=0;shadow=0;comic=0;labelBackgroundColor=none;strokeWidth=1;fillColor=none;fontFamily=Verdana;fontSize=12;container=0;" vertex="1" parent="tYtHjg2n9Ym6Ow5HlM6s-30">
          <mxGeometry x="30" y="75" width="210" height="64" as="geometry">
            <mxRectangle x="30" y="820" width="120" height="30" as="alternateBounds" />
          </mxGeometry>
        </mxCell>
        <mxCell id="tYtHjg2n9Ym6Ow5HlM6s-28" value="&lt;div&gt;Controllers&lt;/div&gt;&lt;div&gt;&lt;br&gt;&lt;/div&gt;" style="swimlane;html=1;fontStyle=1;align=center;verticalAlign=top;childLayout=stackLayout;horizontal=1;startSize=26;horizontalStack=0;resizeParent=1;resizeLast=0;collapsible=1;marginBottom=0;swimlaneFillColor=#ffffff;rounded=0;shadow=0;comic=0;labelBackgroundColor=none;strokeWidth=1;fillColor=none;fontFamily=Verdana;fontSize=12;container=0;" vertex="1" parent="tYtHjg2n9Ym6Ow5HlM6s-30">
          <mxGeometry x="290" y="73" width="120" height="72" as="geometry">
            <mxRectangle x="30" y="820" width="120" height="30" as="alternateBounds" />
          </mxGeometry>
        </mxCell>
        <mxCell id="tYtHjg2n9Ym6Ow5HlM6s-29" value="&lt;div&gt;Views&lt;/div&gt;" style="swimlane;html=1;fontStyle=1;align=center;verticalAlign=top;childLayout=stackLayout;horizontal=1;startSize=26;horizontalStack=0;resizeParent=1;resizeLast=0;collapsible=1;marginBottom=0;swimlaneFillColor=#ffffff;rounded=0;shadow=0;comic=0;labelBackgroundColor=none;strokeWidth=1;fillColor=none;fontFamily=Verdana;fontSize=12;container=0;" vertex="1" parent="tYtHjg2n9Ym6Ow5HlM6s-30">
          <mxGeometry x="290" y="168" width="120" height="72" as="geometry">
            <mxRectangle x="30" y="820" width="120" height="30" as="alternateBounds" />
          </mxGeometry>
        </mxCell>
        <mxCell id="tYtHjg2n9Ym6Ow5HlM6s-27" value="" style="html=1;labelBackgroundColor=#ffffff;startArrow=none;startFill=0;startSize=6;endArrow=classic;endFill=1;endSize=6;jettySize=auto;orthogonalLoop=1;strokeWidth=1;dashed=1;fontSize=14;rounded=0;entryX=1;entryY=0.5;entryDx=0;entryDy=0;" edge="1" parent="tYtHjg2n9Ym6Ow5HlM6s-31">
          <mxGeometry width="60" height="60" relative="1" as="geometry">
            <mxPoint x="159" y="124" as="sourcePoint" />
            <mxPoint y="124" as="targetPoint" />
          </mxGeometry>
        </mxCell>
        <mxCell id="tYtHjg2n9Ym6Ow5HlM6s-26" value="" style="html=1;labelBackgroundColor=#ffffff;startArrow=none;startFill=0;startSize=6;endArrow=classic;endFill=1;endSize=6;jettySize=auto;orthogonalLoop=1;strokeWidth=1;dashed=1;fontSize=14;rounded=0;exitX=0;exitY=1;exitDx=0;exitDy=0;entryX=1;entryY=0.5;entryDx=0;entryDy=0;" edge="1" parent="tYtHjg2n9Ym6Ow5HlM6s-31" target="tYtHjg2n9Ym6Ow5HlM6s-3">
          <mxGeometry width="60" height="60" relative="1" as="geometry">
            <mxPoint x="159" y="202" as="sourcePoint" />
            <mxPoint x="-21" y="198" as="targetPoint" />
          </mxGeometry>
        </mxCell>
        <mxCell id="tYtHjg2n9Ym6Ow5HlM6s-35" style="edgeStyle=orthogonalEdgeStyle;rounded=0;orthogonalLoop=1;jettySize=auto;html=1;entryX=0.5;entryY=1;entryDx=0;entryDy=0;entryPerimeter=0;dashed=1;" edge="1" parent="1" source="tYtHjg2n9Ym6Ow5HlM6s-13" target="tYtHjg2n9Ym6Ow5HlM6s-34">
          <mxGeometry relative="1" as="geometry" />
        </mxCell>
        <mxCell id="tYtHjg2n9Ym6Ow5HlM6s-65" value="" style="group" vertex="1" connectable="0" parent="1">
          <mxGeometry x="710" y="1110" width="370" height="200" as="geometry" />
        </mxCell>
        <mxCell id="tYtHjg2n9Ym6Ow5HlM6s-86" style="edgeStyle=orthogonalEdgeStyle;rounded=0;orthogonalLoop=1;jettySize=auto;html=1;dashed=1;" edge="1" parent="tYtHjg2n9Ym6Ow5HlM6s-65" source="tYtHjg2n9Ym6Ow5HlM6s-34">
          <mxGeometry relative="1" as="geometry">
            <mxPoint x="150" y="-85" as="targetPoint" />
          </mxGeometry>
        </mxCell>
        <mxCell id="tYtHjg2n9Ym6Ow5HlM6s-34" value="&lt;p style=&quot;margin:0px;margin-top:4px;margin-left:10px;text-align:left;&quot;&gt;&lt;b&gt;org.fabianandiel.controller&lt;/b&gt;&lt;/p&gt;" style="html=1;shape=mxgraph.sysml.package;html=1;overflow=fill;whiteSpace=wrap;labelX=169.2;" vertex="1" parent="tYtHjg2n9Ym6Ow5HlM6s-65">
          <mxGeometry width="370" height="200" as="geometry" />
        </mxCell>
        <mxCell id="tYtHjg2n9Ym6Ow5HlM6s-53" value="PersonController" style="swimlane;html=1;fontStyle=1;align=center;verticalAlign=top;childLayout=stackLayout;horizontal=1;startSize=26;horizontalStack=0;resizeParent=1;resizeLast=0;collapsible=1;marginBottom=0;swimlaneFillColor=#ffffff;rounded=0;shadow=0;comic=0;labelBackgroundColor=none;strokeWidth=1;fillColor=none;fontFamily=Verdana;fontSize=12" vertex="1" parent="tYtHjg2n9Ym6Ow5HlM6s-65">
          <mxGeometry x="20" y="50" width="150" height="50" as="geometry" />
        </mxCell>
        <mxCell id="tYtHjg2n9Ym6Ow5HlM6s-62" value="&lt;i&gt;BaseController&lt;/i&gt;" style="swimlane;html=1;fontStyle=1;align=center;verticalAlign=top;childLayout=stackLayout;horizontal=1;startSize=26;horizontalStack=0;resizeParent=1;resizeLast=0;collapsible=1;marginBottom=0;swimlaneFillColor=#ffffff;rounded=0;shadow=0;comic=0;labelBackgroundColor=none;strokeWidth=1;fillColor=none;fontFamily=Verdana;fontSize=12" vertex="1" parent="tYtHjg2n9Ym6Ow5HlM6s-65">
          <mxGeometry x="20" y="130" width="150" height="50" as="geometry" />
        </mxCell>
        <mxCell id="tYtHjg2n9Ym6Ow5HlM6s-63" value="Controllers" style="swimlane;html=1;fontStyle=1;align=center;verticalAlign=top;childLayout=stackLayout;horizontal=1;startSize=26;horizontalStack=0;resizeParent=1;resizeLast=0;collapsible=1;marginBottom=0;swimlaneFillColor=#ffffff;rounded=0;shadow=0;comic=0;labelBackgroundColor=none;strokeWidth=1;fillColor=none;fontFamily=Verdana;fontSize=12" vertex="1" parent="tYtHjg2n9Ym6Ow5HlM6s-65">
          <mxGeometry x="200" y="50" width="150" height="50" as="geometry" />
        </mxCell>
        <mxCell id="tYtHjg2n9Ym6Ow5HlM6s-85" value="" style="group" vertex="1" connectable="0" parent="1">
          <mxGeometry x="700" y="814" width="370" height="210" as="geometry" />
        </mxCell>
        <mxCell id="tYtHjg2n9Ym6Ow5HlM6s-81" value="&lt;p style=&quot;margin:0px;margin-top:4px;margin-left:10px;text-align:left;&quot;&gt;&lt;b&gt;org.fabianandiel.dao&lt;/b&gt;&lt;/p&gt;" style="html=1;shape=mxgraph.sysml.package;align=left;spacingLeft=5;verticalAlign=top;spacingTop=-3;labelX=145.6;html=1;overflow=fill;" vertex="1" parent="tYtHjg2n9Ym6Ow5HlM6s-85">
          <mxGeometry width="370" height="210" as="geometry" />
        </mxCell>
        <mxCell id="tYtHjg2n9Ym6Ow5HlM6s-82" value="&lt;i&gt;BaseDAO&lt;/i&gt;" style="swimlane;html=1;fontStyle=1;align=center;verticalAlign=top;childLayout=stackLayout;horizontal=1;startSize=26;horizontalStack=0;resizeParent=1;resizeLast=0;collapsible=1;marginBottom=0;swimlaneFillColor=#ffffff;rounded=0;shadow=0;comic=0;labelBackgroundColor=none;strokeWidth=1;fillColor=none;fontFamily=Verdana;fontSize=12" vertex="1" parent="tYtHjg2n9Ym6Ow5HlM6s-85">
          <mxGeometry x="10" y="152" width="150" height="50" as="geometry" />
        </mxCell>
        <mxCell id="tYtHjg2n9Ym6Ow5HlM6s-83" value="PersonDAO" style="swimlane;html=1;fontStyle=1;align=center;verticalAlign=top;childLayout=stackLayout;horizontal=1;startSize=26;horizontalStack=0;resizeParent=1;resizeLast=0;collapsible=1;marginBottom=0;swimlaneFillColor=#ffffff;rounded=0;shadow=0;comic=0;labelBackgroundColor=none;strokeWidth=1;fillColor=none;fontFamily=Verdana;fontSize=12" vertex="1" parent="tYtHjg2n9Ym6Ow5HlM6s-85">
          <mxGeometry x="10" y="63" width="150" height="50" as="geometry" />
        </mxCell>
        <mxCell id="tYtHjg2n9Ym6Ow5HlM6s-84" value="DAOs" style="swimlane;html=1;fontStyle=1;align=center;verticalAlign=top;childLayout=stackLayout;horizontal=1;startSize=26;horizontalStack=0;resizeParent=1;resizeLast=0;collapsible=1;marginBottom=0;swimlaneFillColor=#ffffff;rounded=0;shadow=0;comic=0;labelBackgroundColor=none;strokeWidth=1;fillColor=none;fontFamily=Verdana;fontSize=12" vertex="1" parent="tYtHjg2n9Ym6Ow5HlM6s-85">
          <mxGeometry x="180" y="63" width="150" height="50" as="geometry" />
        </mxCell>
        <mxCell id="tYtHjg2n9Ym6Ow5HlM6s-114" value="" style="group" vertex="1" connectable="0" parent="1">
          <mxGeometry x="20" y="1080" width="290" height="220" as="geometry" />
        </mxCell>
        <mxCell id="tYtHjg2n9Ym6Ow5HlM6s-109" value="&lt;p style=&quot;margin:0px;margin-top:4px;margin-left:10px;text-align:left;&quot;&gt;&lt;b&gt;org.fabianandiel.entities&lt;/b&gt;&lt;/p&gt;" style="html=1;shape=mxgraph.sysml.package;align=left;spacingLeft=5;verticalAlign=top;spacingTop=-3;labelX=224;html=1;overflow=fill;" vertex="1" parent="tYtHjg2n9Ym6Ow5HlM6s-114">
          <mxGeometry width="290" height="220" as="geometry" />
        </mxCell>
        <mxCell id="tYtHjg2n9Ym6Ow5HlM6s-110" value="&amp;lt;&amp;lt;entity&amp;gt;&amp;gt;&lt;div&gt;Person&lt;br&gt;&lt;div&gt;&lt;br&gt;&lt;/div&gt;&lt;/div&gt;" style="swimlane;html=1;fontStyle=1;align=center;verticalAlign=top;childLayout=stackLayout;horizontal=1;startSize=50;horizontalStack=0;resizeParent=1;resizeLast=0;collapsible=1;marginBottom=0;swimlaneFillColor=#ffffff;rounded=0;shadow=0;comic=0;labelBackgroundColor=none;strokeWidth=1;fillColor=none;fontFamily=Verdana;fontSize=12" vertex="1" parent="tYtHjg2n9Ym6Ow5HlM6s-114">
          <mxGeometry x="10" y="40" width="110" height="70" as="geometry" />
        </mxCell>
        <mxCell id="tYtHjg2n9Ym6Ow5HlM6s-111" value="&amp;lt;&amp;lt;entity&amp;gt;&amp;gt;&lt;div&gt;Request&lt;br&gt;&lt;div&gt;&lt;br&gt;&lt;/div&gt;&lt;/div&gt;" style="swimlane;html=1;fontStyle=1;align=center;verticalAlign=top;childLayout=stackLayout;horizontal=1;startSize=50;horizontalStack=0;resizeParent=1;resizeLast=0;collapsible=1;marginBottom=0;swimlaneFillColor=#ffffff;rounded=0;shadow=0;comic=0;labelBackgroundColor=none;strokeWidth=1;fillColor=none;fontFamily=Verdana;fontSize=12" vertex="1" parent="tYtHjg2n9Ym6Ow5HlM6s-114">
          <mxGeometry x="160" y="40" width="110" height="70" as="geometry" />
        </mxCell>
        <mxCell id="tYtHjg2n9Ym6Ow5HlM6s-112" value="&amp;lt;&amp;lt;entity&amp;gt;&amp;gt;&lt;div&gt;TimeStamp&lt;br&gt;&lt;div&gt;&lt;br&gt;&lt;/div&gt;&lt;/div&gt;" style="swimlane;html=1;fontStyle=1;align=center;verticalAlign=top;childLayout=stackLayout;horizontal=1;startSize=50;horizontalStack=0;resizeParent=1;resizeLast=0;collapsible=1;marginBottom=0;swimlaneFillColor=#ffffff;rounded=0;shadow=0;comic=0;labelBackgroundColor=none;strokeWidth=1;fillColor=none;fontFamily=Verdana;fontSize=12" vertex="1" parent="tYtHjg2n9Ym6Ow5HlM6s-114">
          <mxGeometry x="11" y="122" width="110" height="70" as="geometry" />
        </mxCell>
        <mxCell id="tYtHjg2n9Ym6Ow5HlM6s-113" value="&amp;lt;&amp;lt;entity&amp;gt;&amp;gt;&lt;div&gt;TimeStamp&lt;br&gt;&lt;div&gt;&lt;br&gt;&lt;/div&gt;&lt;/div&gt;" style="swimlane;html=1;fontStyle=1;align=center;verticalAlign=top;childLayout=stackLayout;horizontal=1;startSize=50;horizontalStack=0;resizeParent=1;resizeLast=0;collapsible=1;marginBottom=0;swimlaneFillColor=#ffffff;rounded=0;shadow=0;comic=0;labelBackgroundColor=none;strokeWidth=1;fillColor=none;fontFamily=Verdana;fontSize=12" vertex="1" parent="tYtHjg2n9Ym6Ow5HlM6s-114">
          <mxGeometry x="158" y="122" width="110" height="70" as="geometry" />
        </mxCell>
        <mxCell id="tYtHjg2n9Ym6Ow5HlM6s-127" value="" style="group" vertex="1" connectable="0" parent="1">
          <mxGeometry x="200" y="310" width="330" height="210" as="geometry" />
        </mxCell>
        <mxCell id="tYtHjg2n9Ym6Ow5HlM6s-116" value="&lt;p style=&quot;margin:0px;margin-top:4px;margin-left:10px;text-align:left;&quot;&gt;&lt;b&gt;org.fabianandiel.context&lt;/b&gt;&lt;/p&gt;" style="html=1;shape=mxgraph.sysml.package;align=left;spacingLeft=5;verticalAlign=top;spacingTop=-3;labelX=160.68;html=1;overflow=fill;" vertex="1" parent="tYtHjg2n9Ym6Ow5HlM6s-127">
          <mxGeometry width="330" height="210" as="geometry" />
        </mxCell>
        <mxCell id="tYtHjg2n9Ym6Ow5HlM6s-123" value="SelectedEmployeeContext" style="swimlane;html=1;fontStyle=1;align=center;verticalAlign=top;childLayout=stackLayout;horizontal=1;startSize=26;horizontalStack=0;resizeParent=1;resizeLast=0;collapsible=1;marginBottom=0;swimlaneFillColor=#ffffff;rounded=0;shadow=0;comic=0;labelBackgroundColor=none;strokeWidth=1;fillColor=none;fontFamily=Verdana;fontSize=12" vertex="1" parent="tYtHjg2n9Ym6Ow5HlM6s-127">
          <mxGeometry x="10" y="50" width="220" height="50" as="geometry" />
        </mxCell>
        <mxCell id="tYtHjg2n9Ym6Ow5HlM6s-124" value="UserContext" style="swimlane;html=1;fontStyle=1;align=center;verticalAlign=top;childLayout=stackLayout;horizontal=1;startSize=26;horizontalStack=0;resizeParent=1;resizeLast=0;collapsible=1;marginBottom=0;swimlaneFillColor=#ffffff;rounded=0;shadow=0;comic=0;labelBackgroundColor=none;strokeWidth=1;fillColor=none;fontFamily=Verdana;fontSize=12" vertex="1" parent="tYtHjg2n9Ym6Ow5HlM6s-127">
          <mxGeometry x="10" y="130" width="220" height="50" as="geometry" />
        </mxCell>
        <mxCell id="tYtHjg2n9Ym6Ow5HlM6s-133" style="edgeStyle=orthogonalEdgeStyle;rounded=0;orthogonalLoop=1;jettySize=auto;html=1;dashed=1;" edge="1" parent="1" source="tYtHjg2n9Ym6Ow5HlM6s-81" target="tYtHjg2n9Ym6Ow5HlM6s-116">
          <mxGeometry relative="1" as="geometry" />
        </mxCell>
        <mxCell id="tYtHjg2n9Ym6Ow5HlM6s-134" style="edgeStyle=orthogonalEdgeStyle;rounded=0;orthogonalLoop=1;jettySize=auto;html=1;entryX=0.979;entryY=1.02;entryDx=0;entryDy=0;entryPerimeter=0;dashed=1;" edge="1" parent="1">
          <mxGeometry relative="1" as="geometry">
            <mxPoint x="746.9826315789475" y="1360" as="sourcePoint" />
            <mxPoint x="489.99999999999994" y="524.1999999999998" as="targetPoint" />
          </mxGeometry>
        </mxCell>
        <mxCell id="tYtHjg2n9Ym6Ow5HlM6s-139" value="&lt;p style=&quot;margin:0px;margin-top:4px;margin-left:10px;text-align:left;&quot;&gt;&lt;b&gt;org.fabianandiel.services&lt;/b&gt;&lt;/p&gt;" style="html=1;shape=mxgraph.sysml.package;align=left;spacingLeft=5;verticalAlign=top;spacingTop=-3;labelX=160.05;html=1;overflow=fill;" vertex="1" parent="1">
          <mxGeometry x="60" y="610" width="250" height="190" as="geometry" />
        </mxCell>
        <mxCell id="tYtHjg2n9Ym6Ow5HlM6s-140" style="edgeStyle=orthogonalEdgeStyle;rounded=0;orthogonalLoop=1;jettySize=auto;html=1;entryX=0.301;entryY=0.989;entryDx=0;entryDy=0;entryPerimeter=0;dashed=1;" edge="1" parent="1" source="tYtHjg2n9Ym6Ow5HlM6s-139" target="tYtHjg2n9Ym6Ow5HlM6s-116">
          <mxGeometry relative="1" as="geometry" />
        </mxCell>
        <mxCell id="tYtHjg2n9Ym6Ow5HlM6s-141" value="Services" style="swimlane;html=1;fontStyle=1;align=center;verticalAlign=top;childLayout=stackLayout;horizontal=1;startSize=26;horizontalStack=0;resizeParent=1;resizeLast=0;collapsible=1;marginBottom=0;swimlaneFillColor=#ffffff;rounded=0;shadow=0;comic=0;labelBackgroundColor=none;strokeWidth=1;fillColor=none;fontFamily=Verdana;fontSize=12" vertex="1" parent="1">
          <mxGeometry x="70" y="640" width="150" height="50" as="geometry" />
        </mxCell>
        <mxCell id="tYtHjg2n9Ym6Ow5HlM6s-142" style="edgeStyle=orthogonalEdgeStyle;rounded=0;orthogonalLoop=1;jettySize=auto;html=1;entryX=0.974;entryY=1.012;entryDx=0;entryDy=0;entryPerimeter=0;dashed=1;" edge="1" parent="1">
          <mxGeometry relative="1" as="geometry">
            <mxPoint x="303.5" y="800" as="targetPoint" />
            <mxPoint x="480" y="1490.1936842105263" as="sourcePoint" />
            <Array as="points">
              <mxPoint x="480" y="1510" />
              <mxPoint x="430" y="1510" />
              <mxPoint x="430" y="800" />
            </Array>
          </mxGeometry>
        </mxCell>
        <mxCell id="tYtHjg2n9Ym6Ow5HlM6s-143" style="edgeStyle=orthogonalEdgeStyle;rounded=0;orthogonalLoop=1;jettySize=auto;html=1;dashed=1;" edge="1" parent="1" source="tYtHjg2n9Ym6Ow5HlM6s-81" target="tYtHjg2n9Ym6Ow5HlM6s-139">
          <mxGeometry relative="1" as="geometry" />
        </mxCell>
        <mxCell id="tYtHjg2n9Ym6Ow5HlM6s-144" style="edgeStyle=orthogonalEdgeStyle;rounded=0;orthogonalLoop=1;jettySize=auto;html=1;entryX=1.003;entryY=0.054;entryDx=0;entryDy=0;entryPerimeter=0;dashed=1;" edge="1" parent="1" source="tYtHjg2n9Ym6Ow5HlM6s-13" target="tYtHjg2n9Ym6Ow5HlM6s-109">
          <mxGeometry relative="1" as="geometry">
            <Array as="points">
              <mxPoint x="460" y="1492" />
              <mxPoint x="460" y="1092" />
            </Array>
          </mxGeometry>
        </mxCell>
      </root>
    </mxGraphModel>
  </diagram>
</mxfile>
